
  <svg width="385.5" height="48" viewBox="0 0 2056 256" fill="none" xmlns="http://www.w3.org/2000/svg" xmlns:xlink="http://www.w3.org/1999/xlink" version="1.1">
    
        <g transform="translate(0, 0)">
          <svg width="256" height="256" viewBox="0 0 256 256" fill="none" xmlns="http://www.w3.org/2000/svg">
<rect width="256" height="256" rx="60" fill="#F4F2ED"/>
<path d="M180.975 90.4153L167.567 103.824C189.508 125.765 189.508 161.115 167.567 182.65C145.625 204.591 110.275 204.591 88.7404 182.65C66.7991 160.709 66.7991 125.359 88.7404 103.824L123.481 69.0835L128.357 64.2077V38L75.9413 90.4153C46.6862 119.67 46.6862 166.804 75.9413 196.059C105.196 225.314 152.33 225.314 180.975 196.059C210.23 166.6 210.23 119.67 180.975 90.4153Z" fill="#EE4C2C"/>
<path d="M154.768 87.1646C160.153 87.1646 164.519 82.7986 164.519 77.4129C164.519 72.0272 160.153 67.6611 154.768 67.6611C149.382 67.6611 145.016 72.0272 145.016 77.4129C145.016 82.7986 149.382 87.1646 154.768 87.1646Z" fill="#EE4C2C"/>
</svg>

        </g>
         
        <g transform="translate(300, 0)">
          <svg width="256" height="256" viewBox="0 0 256 256" fill="none" xmlns="http://www.w3.org/2000/svg">
<rect width="256" height="256" rx="60" fill="#F4F2ED"/>
<path d="M124.228 229L90.623 208.89V90.31L40 120.459L40.123 75.545L124.228 26V229ZM131.784 26V229L165.393 208.89V151.781L190.763 166.895L190.612 127.833L165.393 112.988V90.31L216 120.459L215.878 75.545L131.784 26Z" fill="#FF6F00"/>
</svg>

        </g>
         
        <g transform="translate(600, 0)">
          <svg width="256" height="256" viewBox="0 0 256 256" fill="none" xmlns="http://www.w3.org/2000/svg">
<rect width="256" height="256" rx="60" fill="#F4F2ED"/>
<g clip-path="url(#clip0_983_177)">
<path d="M181.405 165.654C205.831 141.23 209.891 105.69 190.472 86.2731C171.056 66.8579 135.518 70.9168 111.094 95.3399C86.6691 119.764 93.7346 166.426 102.028 174.721C108.73 181.423 156.982 190.078 181.405 165.654Z" fill="#F89939"/>
<path d="M81.1816 130.361C67.0116 116.192 46.3899 113.833 35.1213 125.1C23.8556 136.367 26.211 156.991 40.3838 171.159C54.5567 185.333 81.6323 181.234 86.4412 176.42C90.3327 172.535 95.3558 144.533 81.1816 130.361Z" fill="#3499CD"/>
<path d="M130.073 159.668C127.57 161.972 125.374 163.672 123.487 164.765C121.599 165.861 119.799 166.409 118.086 166.409C116.116 166.409 114.527 165.645 113.321 164.117C112.114 162.587 111.513 160.536 111.513 157.956C111.513 154.089 112.351 149.448 114.027 144.036C115.7 138.62 117.737 133.629 120.13 129.063L127.147 126.466C127.367 126.392 127.534 126.354 127.645 126.354C128.177 126.354 128.617 126.747 128.955 127.528C129.296 128.313 129.467 129.367 129.467 130.692C129.467 134.449 128.603 138.086 126.87 141.603C125.137 145.122 122.432 148.877 118.749 152.873C118.601 154.789 118.528 156.104 118.528 156.823C118.528 158.427 118.822 159.695 119.411 160.635C120.001 161.576 120.783 162.043 121.759 162.043C122.755 162.043 123.813 161.687 124.937 160.969C126.058 160.249 127.771 158.759 130.073 156.492V159.668H130.073ZM119.495 148.869C121.833 146.269 123.732 143.354 125.186 140.128C126.64 136.9 127.366 134.125 127.366 131.799C127.366 131.121 127.266 130.57 127.064 130.156C126.862 129.741 126.602 129.533 126.29 129.533C125.611 129.533 124.62 131.229 123.321 134.622C122.022 138.015 120.747 142.764 119.495 148.869Z" fill="#010101"/>
<path d="M150.737 159.667C148.399 161.972 146.3 163.672 144.439 164.765C142.579 165.861 140.528 166.408 138.28 166.408C135.775 166.408 133.754 165.607 132.214 164.007C130.678 162.402 129.91 160.295 129.91 157.68C129.91 153.777 131.262 150.245 133.973 147.087C136.677 143.927 139.68 142.349 142.976 142.349C144.689 142.349 146.059 142.792 147.092 143.676C148.123 144.561 148.639 145.719 148.639 147.156C148.639 150.969 144.588 154.061 136.485 156.437C137.221 160.026 139.145 161.824 142.258 161.824C143.474 161.824 144.633 161.497 145.737 160.845C146.844 160.19 148.509 158.738 150.737 156.493L150.737 159.667ZM136.262 154.558C140.975 153.231 143.334 150.784 143.334 147.211C143.334 145.443 142.688 144.56 141.401 144.56C140.185 144.56 139.026 145.484 137.922 147.336C136.814 149.186 136.262 151.592 136.262 154.558Z" fill="#010101"/>
<path d="M180.238 159.668C177.291 162.466 175.182 164.292 173.913 165.14C172.642 165.987 171.427 166.409 170.266 166.409C167.356 166.409 165.985 163.841 166.15 158.703C164.309 161.335 162.609 163.278 161.053 164.533C159.498 165.785 157.892 166.409 156.232 166.409C154.614 166.409 153.238 165.651 152.103 164.132C150.969 162.612 150.406 160.749 150.406 158.537C150.406 155.776 151.164 153.142 152.682 150.636C154.203 148.131 156.15 146.108 158.525 144.561C160.9 143.014 163.001 142.239 164.822 142.239C167.125 142.239 168.737 143.299 169.658 145.415L175.303 142.296H176.853L174.414 150.388C173.162 154.459 172.534 157.249 172.534 158.759C172.534 160.342 173.094 161.134 174.219 161.134C174.934 161.134 175.726 160.752 176.592 159.987C177.458 159.222 178.671 158.057 180.236 156.492V159.668H180.238ZM160.018 161.189C161.859 161.189 163.594 159.619 165.227 156.48C166.857 153.339 167.671 150.441 167.671 147.79C167.671 146.76 167.439 145.953 166.981 145.374C166.519 144.792 165.902 144.504 165.13 144.504C163.288 144.504 161.541 146.069 159.896 149.2C158.248 152.332 157.422 155.213 157.422 157.844C157.422 158.84 157.667 159.646 158.155 160.263C158.642 160.881 159.261 161.189 160.018 161.189Z" fill="#010101"/>
<path d="M200.873 159.668C196.25 164.197 192.686 166.464 190.182 166.464C189.058 166.464 188.109 165.99 187.337 165.044C186.565 164.095 186.177 162.92 186.177 161.52C186.177 158.923 187.569 155.444 190.349 151.079C188.985 151.779 187.495 152.265 185.874 152.542C184.677 154.752 182.797 157.128 180.238 159.667H179.604V157.184C181.04 155.692 182.339 154.089 183.499 152.376C181.913 151.676 181.123 150.635 181.123 149.257C181.123 147.837 181.604 146.323 182.574 144.709C183.54 143.1 184.87 142.295 186.565 142.295C188.002 142.295 188.719 143.029 188.719 144.503C188.719 145.664 188.305 147.32 187.475 149.476C190.531 149.143 193.202 146.807 195.487 142.459L197.999 142.348L195.43 149.42C194.363 152.403 193.672 154.435 193.36 155.511C193.047 156.587 192.89 157.542 192.89 158.37C192.89 159.144 193.07 159.763 193.428 160.22C193.787 160.684 194.271 160.912 194.879 160.912C195.541 160.912 196.177 160.685 196.785 160.237C197.392 159.782 198.755 158.535 200.874 156.492V159.668H200.873Z" fill="#010101"/>
<path d="M228 159.668C223.746 164.164 220.098 166.409 217.061 166.409C215.827 166.409 214.832 165.977 214.077 165.111C213.321 164.246 212.944 163.086 212.944 161.632C212.944 159.661 213.755 156.65 215.376 152.6C216.241 150.426 216.675 149.043 216.675 148.456C216.675 147.866 216.443 147.571 215.985 147.571C215.727 147.571 215.385 147.701 214.962 147.957C214.574 148.215 214.123 148.577 213.607 149.036C213.148 149.459 212.631 149.974 212.06 150.58C211.562 151.1 211.027 151.689 210.46 152.349L208.911 154.146C208.231 154.974 207.807 155.848 207.642 156.769C207.364 158.334 207.181 159.772 207.088 161.081C207.031 162.055 207.005 163.37 207.005 165.031L200.9 166.465C200.699 163.979 200.595 162.128 200.595 160.914C200.595 157.949 200.941 155.14 201.633 152.489C202.323 149.835 203.431 146.854 204.961 143.538L211.7 142.24C210.282 146.053 209.353 149.053 208.911 151.244C211.931 147.874 214.325 145.542 216.1 144.242C217.872 142.943 219.45 142.296 220.829 142.296C221.766 142.296 222.549 142.65 223.173 143.357C223.8 144.066 224.111 144.955 224.111 146.018C224.111 147.784 223.319 150.694 221.738 154.747C220.65 157.527 220.107 159.33 220.107 160.163C220.107 161.272 220.559 161.826 221.463 161.826C222.81 161.826 224.99 160.048 228 156.494V159.668Z" fill="#010101"/>
<path d="M140.524 128.723C140.568 129.211 140.69 129.585 140.89 129.845C141.259 130.316 141.898 130.552 142.808 130.552C143.35 130.552 143.827 130.435 144.239 130.202C144.65 129.964 144.856 129.598 144.856 129.105C144.856 128.731 144.691 128.447 144.361 128.252C144.149 128.133 143.732 127.995 143.109 127.837L141.947 127.545C141.204 127.361 140.657 127.155 140.305 126.927C139.677 126.532 139.362 125.984 139.362 125.285C139.362 124.462 139.658 123.795 140.248 123.286C140.844 122.777 141.643 122.522 142.646 122.522C143.957 122.522 144.902 122.907 145.482 123.676C145.845 124.164 146.021 124.689 146.01 125.253H144.629C144.602 124.922 144.485 124.622 144.279 124.351C143.943 123.966 143.361 123.774 142.532 123.774C141.979 123.774 141.559 123.879 141.272 124.091C140.99 124.302 140.85 124.581 140.85 124.928C140.85 125.307 141.036 125.611 141.41 125.838C141.627 125.974 141.947 126.093 142.369 126.196L143.337 126.431C144.388 126.686 145.092 126.933 145.45 127.171C146.019 127.545 146.303 128.133 146.303 128.935C146.303 129.709 146.008 130.379 145.417 130.942C144.832 131.506 143.938 131.787 142.735 131.787C141.44 131.787 140.522 131.495 139.98 130.91C139.444 130.319 139.156 129.59 139.118 128.723H140.524ZM151.334 122.498C152.314 122.498 153.111 122.736 153.723 123.213C154.341 123.69 154.712 124.511 154.837 125.676H153.414C153.328 125.139 153.13 124.695 152.821 124.343C152.512 123.985 152.016 123.806 151.334 123.806C150.402 123.806 149.735 124.261 149.334 125.172C149.074 125.762 148.944 126.491 148.944 127.358C148.944 128.23 149.129 128.964 149.497 129.56C149.865 130.156 150.445 130.454 151.236 130.454C151.843 130.454 152.323 130.27 152.675 129.902C153.032 129.528 153.279 129.019 153.414 128.374H154.837C154.674 129.528 154.268 130.373 153.618 130.91C152.967 131.441 152.136 131.706 151.122 131.706C149.985 131.706 149.077 131.292 148.4 130.463C147.723 129.628 147.384 128.588 147.384 127.342C147.384 125.814 147.755 124.624 148.497 123.774C149.24 122.923 150.185 122.498 151.334 122.498ZM156.3 122.79H157.787V131.454H156.3V122.79ZM156.3 119.515H157.787V121.173H156.3V119.515ZM159.973 119.515H161.379V126.448L165.134 122.75H167.003L163.671 126.009L167.19 131.454H165.321L162.606 127.065L161.379 128.187V131.454H159.973V119.515ZM168.328 122.79H169.815V131.454H168.328V122.79ZM168.328 119.515H169.815V121.173H168.328V119.515ZM172.327 120.32H173.806V122.75H175.196V123.944H173.806V129.625C173.806 129.929 173.909 130.132 174.115 130.235C174.228 130.295 174.418 130.324 174.683 130.324C174.754 130.324 174.83 130.324 174.911 130.324C174.992 130.319 175.087 130.311 175.196 130.3V131.454C175.028 131.503 174.851 131.538 174.667 131.56C174.488 131.581 174.293 131.592 174.082 131.592C173.399 131.592 172.936 131.419 172.692 131.072C172.448 130.72 172.327 130.265 172.327 129.707V123.944H171.148V122.75H172.327V120.32Z" fill="white"/>
</g>
<defs>
<clipPath id="clip0_983_177">
<rect width="200" height="107.86" fill="white" transform="translate(28 74)"/>
</clipPath>
</defs>
</svg>

        </g>
         
        <g transform="translate(900, 0)">
          <svg width="256" height="256" viewBox="0 0 256 256" fill="none" xmlns="http://www.w3.org/2000/svg">
<rect width="256" height="256" rx="60" fill="#F4F2ED"/>
<path d="M104.028 122.58C95.08 117.414 88.087 109.44 84.1332 99.895C80.1794 90.3496 79.4857 79.7664 82.1598 69.7866C84.8339 59.8069 90.7262 50.9884 98.923 44.6988C107.12 38.4092 117.163 35 127.495 35C137.826 35 147.87 38.4092 156.066 44.6988C164.263 50.9884 170.155 59.8069 172.829 69.7866C175.504 79.7664 174.81 90.3496 170.856 99.895C166.902 109.44 159.909 117.414 150.962 122.58L136.831 98.1043C140.39 96.0492 143.172 92.8769 144.745 89.0795C146.318 85.282 146.594 81.0717 145.53 77.1015C144.466 73.1312 142.122 69.623 138.861 67.1208C135.6 64.6186 131.605 63.2623 127.495 63.2623C123.384 63.2623 119.389 64.6186 116.128 67.1208C112.867 69.623 110.523 73.1312 109.459 77.1015C108.395 81.0717 108.671 85.282 110.244 89.0795C111.817 92.8769 114.599 96.0492 118.159 98.1043L104.028 122.58Z" fill="#FF0101"/>
<path d="M204.533 133.943C213.481 139.109 220.474 147.083 224.427 156.628C228.381 166.173 229.075 176.756 226.401 186.736C223.727 196.716 217.834 205.534 209.638 211.824C201.441 218.114 191.398 221.523 181.066 221.523C170.734 221.523 160.691 218.114 152.494 211.824C144.297 205.534 138.405 196.716 135.731 186.736C133.057 176.756 133.751 166.173 137.704 156.628C141.658 147.083 148.651 139.109 157.599 133.943L171.73 158.419C168.17 160.474 165.388 163.646 163.815 167.443C162.242 171.241 161.967 175.451 163.03 179.421C164.094 183.392 166.438 186.9 169.699 189.402C172.96 191.904 176.956 193.261 181.066 193.261C185.176 193.261 189.172 191.904 192.433 189.402C195.693 186.9 198.038 183.392 199.101 179.421C200.165 175.451 199.889 171.241 198.316 167.443C196.743 163.646 193.961 160.474 190.402 158.419L204.533 133.943Z" fill="#0101FF"/>
<path d="M121.868 174.589C121.868 184.921 118.459 194.964 112.169 203.16C105.88 211.357 97.0613 217.25 87.0816 219.924C77.1018 222.598 66.5186 221.904 56.9733 217.95C47.4279 213.996 39.4539 207.003 34.288 198.056C29.1221 189.108 27.053 178.706 28.4016 168.463C29.7502 158.219 34.4411 148.707 41.7467 141.401C49.0524 134.096 58.5646 129.405 68.808 128.056C79.0514 126.708 89.4536 128.777 98.4012 133.943L84.27 158.419C80.7104 156.363 76.5721 155.54 72.497 156.077C68.4219 156.613 64.6376 158.479 61.7312 161.386C58.8248 164.292 56.9586 168.077 56.4221 172.152C55.8856 176.227 56.7088 180.365 58.7639 183.925C60.8191 187.484 63.9914 190.266 67.7888 191.839C71.5862 193.412 75.7965 193.688 79.7668 192.624C83.737 191.561 87.2453 189.216 89.7475 185.955C92.2496 182.695 93.6059 178.699 93.6059 174.589H121.868Z" fill="#01FF01"/>
</svg>

        </g>
         
        <g transform="translate(1200, 0)">
          <svg xmlns="http://www.w3.org/2000/svg" width="256" height="256" fill="none" viewBox="0 0 256 256"><rect width="256" height="256" fill="#F4F2ED" rx="60"/><path fill="#81CD39" d="M119.878 31.1164C124.797 28.3008 131.203 28.2883 136.117 31.1164C160.839 45.0855 185.569 59.0332 210.287 73.0108C214.937 75.6296 218.046 80.8038 217.999 86.1608V170.206C218.034 175.785 214.617 181.083 209.712 183.642C185.071 197.535 160.442 211.444 135.805 225.337C130.786 228.207 124.251 227.986 119.387 224.88C112 220.598 104.6 216.336 97.2121 212.058C95.7022 211.158 94.0004 210.442 92.9345 208.978C93.8766 207.708 95.5618 207.55 96.9309 206.995C100.014 206.014 102.847 204.44 105.679 202.913C106.396 202.423 107.27 202.611 107.957 203.049C114.274 206.671 120.536 210.399 126.874 213.986C128.226 214.767 129.595 213.73 130.751 213.086C154.931 199.419 179.141 185.805 203.318 172.134C204.214 171.703 204.709 170.752 204.636 169.771C204.653 142.046 204.64 114.317 204.645 86.5918C204.747 85.4785 204.103 84.455 203.096 83.999C178.541 70.1702 153.997 56.3205 129.446 42.4882C128.575 41.8893 127.426 41.8878 126.554 42.4837C102.002 56.3205 77.4638 70.1832 52.9124 84.011C51.9092 84.4675 51.236 85.4745 51.3554 86.5918C51.3596 114.317 51.3554 142.046 51.3554 169.775C51.2682 170.756 51.801 171.687 52.6906 172.109C59.2422 175.824 65.8024 179.513 72.3582 183.216C76.0516 185.203 80.5863 186.385 84.6555 184.862C88.2463 183.574 90.7633 179.909 90.6948 176.097C90.7288 148.534 90.6778 120.967 90.7203 93.4078C90.6309 92.1841 91.7912 91.1731 92.981 91.2885C96.1292 91.267 99.281 91.2461 102.429 91.297C103.743 91.267 104.647 92.5847 104.485 93.8174C104.472 121.555 104.519 149.293 104.464 177.03C104.472 184.423 101.435 192.467 94.5973 196.084C86.1737 200.447 75.7619 199.522 67.4399 195.338C60.2355 191.742 53.3603 187.498 46.2838 183.646C41.3661 181.101 37.966 175.782 38.0006 170.207V86.1608C37.949 80.6929 41.1825 75.4248 45.9764 72.8445C70.6133 58.9408 95.2461 45.0261 119.878 31.1164Z"/><path fill="#81CD39" d="M141.372 89.3351C152.117 88.6433 163.62 88.9255 173.289 94.2185C180.776 98.2754 184.926 106.789 185.058 115.106C184.849 116.227 183.676 116.846 182.605 116.769C179.488 116.765 176.369 116.812 173.252 116.748C171.929 116.799 171.161 115.58 170.995 114.411C170.099 110.431 167.928 106.49 164.183 104.57C158.433 101.692 151.767 101.837 145.496 101.897C140.92 102.139 135.998 102.536 132.12 105.227C129.143 107.266 128.239 111.382 129.301 114.697C130.303 117.077 133.05 117.845 135.298 118.553C148.248 121.94 161.97 121.602 174.671 126.059C179.931 127.876 185.075 131.409 186.875 136.915C189.23 144.295 188.198 153.115 182.947 159.039C178.689 163.914 172.488 166.568 166.303 168.009C158.075 169.844 149.536 169.891 141.18 169.076C133.323 168.18 125.146 166.116 119.081 160.763C113.894 156.259 111.361 149.241 111.612 142.469C111.672 141.325 112.811 140.527 113.907 140.621C117.046 140.596 120.186 140.587 123.325 140.626C124.579 140.536 125.509 141.62 125.573 142.802C126.152 146.593 127.577 150.573 130.883 152.82C137.264 156.937 145.271 156.655 152.577 156.77C158.629 156.502 165.424 156.421 170.364 152.42C172.97 150.138 173.742 146.32 173.038 143.036C172.275 140.263 169.374 138.971 166.883 138.126C154.1 134.083 140.224 135.55 127.565 130.977C122.425 129.161 117.455 125.727 115.481 120.447C112.726 112.974 113.988 103.73 119.789 98.0061C125.445 92.312 133.609 90.1192 141.372 89.3346V89.3351"/></svg>
        </g>
         
        <g transform="translate(1500, 0)">
          <svg width="256" height="256" viewBox="0 0 256 256" fill="none" xmlns="http://www.w3.org/2000/svg">
<rect width="256" height="256" rx="60" fill="white"/>
<path fill-rule="evenodd" clip-rule="evenodd" d="M93.213 222.94L50 48L223.23 97.874L93.213 222.94Z" stroke="black" stroke-width="4" stroke-miterlimit="10" stroke-linejoin="round"/>
<path fill-rule="evenodd" clip-rule="evenodd" d="M136.583 72.9419L158.174 160.438L71.6071 135.493L136.583 72.9419Z" stroke="black" stroke-width="4" stroke-miterlimit="10" stroke-linejoin="round"/>
<path fill-rule="evenodd" clip-rule="evenodd" d="M115.103 147.36L104.379 103.895L147.387 116.241L115.103 147.36Z" stroke="black" stroke-width="4" stroke-miterlimit="10" stroke-linejoin="round"/>
<path fill-rule="evenodd" clip-rule="evenodd" d="M93.6509 60.4829L104.375 103.948L61.3669 91.6019L93.6509 60.4829Z" stroke="black" stroke-width="4" stroke-miterlimit="10" stroke-linejoin="round"/>
<path fill-rule="evenodd" clip-rule="evenodd" d="M179.663 85.2598L190.387 128.725L147.379 116.379L179.663 85.2598Z" stroke="black" stroke-width="4" stroke-miterlimit="10" stroke-linejoin="round"/>
<path fill-rule="evenodd" clip-rule="evenodd" d="M115.108 147.39L125.832 190.855L82.824 178.509L115.108 147.39Z" stroke="black" stroke-width="4" stroke-miterlimit="10" stroke-linejoin="round"/>
</svg>

        </g>
         
        <g transform="translate(1800, 0)">
          <svg width="256" height="256" viewBox="0 0 256 256" fill="none" xmlns="http://www.w3.org/2000/svg">
<g clip-path="url(#clip0_404_220)">
<rect width="256" height="256" rx="60" fill="#59B943"/>
<path fill-rule="evenodd" clip-rule="evenodd" d="M233.776 -6H256V261H253.934C254.456 261 254.956 260.793 255.326 260.425C255.695 260.057 255.902 259.557 255.902 259.037V33.7359C256.059 33.2777 256.026 32.7762 255.812 32.3417C255.598 31.9073 255.22 31.5755 254.76 31.4193C254.301 31.2631 253.798 31.2953 253.363 31.5088C252.927 31.7224 252.594 32.0997 252.438 32.5579L169.762 125.144C169.526 125.399 169.239 125.602 168.921 125.741C168.603 125.88 168.259 125.951 167.911 125.951C167.564 125.951 167.22 125.88 166.901 125.741C166.583 125.602 166.297 125.399 166.061 125.144L123.857 81.7174C123.499 81.2717 123.304 80.7177 123.304 80.1468C123.304 79.5758 123.499 79.0219 123.857 78.5762L137.793 60.75C138.027 60.4257 138.334 60.1615 138.69 59.9793C139.046 59.7971 139.441 59.702 139.841 59.702C140.241 59.702 140.635 59.7971 140.991 59.9793C141.347 60.1615 141.655 60.4257 141.888 60.75L165.51 86.8218C165.746 87.1025 166.041 87.3282 166.375 87.4831C166.708 87.6379 167.071 87.7182 167.439 87.7182C167.806 87.7182 168.17 87.6379 168.503 87.4831C168.836 87.3282 169.131 87.1025 169.368 86.8218L235.194 -3.17294C235.377 -3.4389 235.485 -3.74892 235.508 -4.07077C235.53 -4.39263 235.465 -4.71458 235.321 -5.00314C235.176 -5.29171 234.956 -5.53636 234.685 -5.71167C234.413 -5.88697 234.1 -5.98653 233.776 -6ZM1.96848 -6H0V-4.03676C0 -4.55745 0.207393 -5.0568 0.576554 -5.42498C0.945715 -5.79316 1.4464 -6 1.96848 -6ZM0 259.037V261H1.96848C1.4464 261 0.945715 260.793 0.576554 260.425C0.207393 260.057 0 259.557 0 259.037ZM168.968 163.04C164.08 162.892 159.315 164.577 155.619 167.761C151.923 170.944 149.568 175.392 149.02 180.222C148.996 180.316 148.994 180.414 149.014 180.508C149.034 180.603 149.076 180.691 149.137 180.767C149.198 180.842 149.275 180.902 149.364 180.943C149.452 180.983 149.549 181.003 149.646 181H188.369C188.458 181 188.547 180.982 188.628 180.946C188.71 180.91 188.783 180.857 188.842 180.791C188.901 180.725 188.946 180.647 188.972 180.562C188.998 180.477 189.006 180.388 188.995 180.3C188.614 175.383 186.298 170.813 182.549 167.581C178.8 164.35 173.92 162.718 168.968 163.04ZM26.1414 216.003C38.5828 226.905 54.7968 232.54 71.3376 231.709H71.2589C101.101 231.709 115.51 216.474 115.51 196.527C115.51 171.51 92.231 165.937 73.8707 161.541C61.9159 158.678 52.0466 156.316 52.0466 149.41C52.0466 142.813 57.7158 138.337 67.7944 138.337C78.7663 138.235 89.4405 141.894 98.0302 148.703C98.2841 148.92 98.5799 149.082 98.8994 149.18C99.2188 149.278 99.555 149.31 99.8872 149.273C100.219 149.236 100.54 149.132 100.831 148.966C101.121 148.801 101.373 148.577 101.573 148.31L111.258 134.882C111.696 134.428 111.941 133.823 111.941 133.193C111.941 132.564 111.696 131.959 111.258 131.505C99.6091 122.062 84.9224 117.152 69.9203 117.684C43.7789 117.684 28.0311 132.919 28.0311 151.216C28.0311 175.818 50.4299 181.123 68.6468 185.437C81.1317 188.394 91.6523 190.885 91.6523 198.805C91.6523 205.087 85.3532 211.055 72.44 211.055C60.1792 211.093 48.3607 206.49 39.3696 198.176C39.0915 198.007 38.7823 197.896 38.4602 197.847C38.1381 197.799 37.8096 197.816 37.4941 197.897C37.1786 197.977 36.8824 198.12 36.623 198.316C36.3636 198.513 36.1463 198.759 35.9838 199.04L26.1414 212.783C25.7483 213.228 25.5315 213.8 25.5315 214.393C25.5315 214.986 25.7483 215.558 26.1414 216.003ZM209.931 194.319C210.038 194.047 210.087 193.756 210.076 193.465L209.997 190.952C209.997 164.173 193.383 145.876 168.895 145.876C163.245 145.778 157.633 146.824 152.398 148.95C147.164 151.076 142.417 154.239 138.443 158.246C134.468 162.254 131.35 167.024 129.276 172.267C127.202 177.51 126.216 183.119 126.376 188.753C126.148 194.526 127.132 200.282 129.264 205.654C131.397 211.025 134.632 215.893 138.761 219.945C142.89 223.997 147.823 227.143 153.243 229.182C158.663 231.222 164.45 232.109 170.234 231.787C181.812 232.078 193.162 228.544 202.517 221.735C202.942 221.395 203.225 220.91 203.313 220.373C203.4 219.836 203.285 219.287 202.989 218.83L195.903 208.542C195.739 208.29 195.523 208.076 195.27 207.913C195.017 207.751 194.732 207.644 194.435 207.599C194.137 207.555 193.833 207.574 193.543 207.655C193.253 207.736 192.984 207.878 192.753 208.071C186.841 212.219 179.823 214.515 172.596 214.668C167.089 215.121 161.61 213.503 157.239 210.132C152.867 206.76 149.919 201.879 148.974 196.449C148.963 196.356 148.971 196.262 148.997 196.172C149.023 196.082 149.066 195.998 149.125 195.925C149.183 195.852 149.256 195.791 149.338 195.746C149.421 195.701 149.511 195.673 149.604 195.664H207.871C208.164 195.675 208.455 195.625 208.728 195.519C209 195.412 209.248 195.25 209.455 195.044C209.662 194.838 209.824 194.591 209.931 194.319Z" fill="white"/>
</g>
<defs>
<clipPath id="clip0_404_220">
<rect width="256" height="256" rx="60" fill="white"/>
</clipPath>
</defs>
</svg>

        </g>
        
  </svg>
  