<svg width="330" height="195" viewBox="0 0 330 195" xmlns="http://www.w3.org/2000/svg"
  font-family="Segoe UI, Helvetica, Arial, sans-serif" role="img" aria-label="RyoTACHIWANA's most used languages">
  <text x="25" y="34" font-size="18" font-weight="700" fill="#6f8ff7">Most Used Languages</text>
  <clipPath id="bar"><rect x="25" y="52" width="280" height="10" rx="5"/></clipPath>
  <g clip-path="url(#bar)"><rect x="25.00" y="52" width="80.99" height="10" fill="#f1e05a"/><rect x="105.99" y="52" width="64.81" height="10" fill="#e34c26"/><rect x="170.80" y="52" width="57.78" height="10" fill="#00B4AB"/><rect x="228.58" y="52" width="43.46" height="10" fill="#663399"/><rect x="272.03" y="52" width="30.65" height="10" fill="#3572A5"/><rect x="302.68" y="52" width="2.32" height="10" fill="#89e051"/><rect x="25" y="52" width="280" height="10" fill="none"/></g>
  <circle cx="30" cy="88" r="5.5" fill="#f1e05a"/>
  <text x="43" y="92" font-size="13" fill="#8b949e">JavaScript <tspan font-weight="700" fill="#6f8ff7">28.9%</tspan></text>
  <circle cx="30" cy="114" r="5.5" fill="#e34c26"/>
  <text x="43" y="118" font-size="13" fill="#8b949e">HTML <tspan font-weight="700" fill="#6f8ff7">23.1%</tspan></text>
  <circle cx="30" cy="140" r="5.5" fill="#00B4AB"/>
  <text x="43" y="144" font-size="13" fill="#8b949e">Dart <tspan font-weight="700" fill="#6f8ff7">20.6%</tspan></text>
  <circle cx="180" cy="88" r="5.5" fill="#663399"/>
  <text x="193" y="92" font-size="13" fill="#8b949e">CSS <tspan font-weight="700" fill="#6f8ff7">15.5%</tspan></text>
  <circle cx="180" cy="114" r="5.5" fill="#3572A5"/>
  <text x="193" y="118" font-size="13" fill="#8b949e">Python <tspan font-weight="700" fill="#6f8ff7">10.9%</tspan></text>
  <circle cx="180" cy="140" r="5.5" fill="#89e051"/>
  <text x="193" y="144" font-size="13" fill="#8b949e">Shell <tspan font-weight="700" fill="#6f8ff7">0.8%</tspan></text>
</svg>
